# xmcd
#
# Track frame offsets:
#	150
#	20600
#	38986
#	56696
#	74725
#	97713
#	119304
#	135985
#	156610
#	176976
#	211353
#	234545
#	253663
#
# Disc length: 3672 seconds
#
# Revision: 5
# Processed by: cddbd v1.5.2PL0 Copyright (c) Steve Scherf et al.
# Submitted via: EasyCDDAExtractor 15.3.0.1
#
DISCID=be0e560d
DTITLE=Celine Dion - My Love - Ultimate Essential Collection - CD 1
DYEAR=2008
DGENRE=Pop
TTITLE0=Where Does My Heart Beat Now
TTITLE1=Beauty And The Beast (Duet With Peabo Bryson)
TTITLE2=If You Asked Me To
TTITLE3=Love Can Move Mountains
TTITLE4=My Love (Live Version)
TTITLE5=The Power Of Love
TTITLE6=(You Make Me Feel Like A) Natural Woman
TTITLE7=Because You Loved Me (Theme From ''Up Close and Personal'')
TTITLE8=The Power Of The Dream
TTITLE9=It's All Coming Back To Me Now
TTITLE10=All By Myself
TTITLE11=Pour Que Tu M'aimes Encore
TTITLE12=Tell Him (Duet With Barbra Streisand)
EXTD=
EXTT0=
EXTT1=
EXTT2=
EXTT3=
EXTT4=
EXTT5=
EXTT6=
EXTT7=
EXTT8=
EXTT9=
EXTT10=
EXTT11=
EXTT12=
PLAYORDER=
